<svg width="126" height="83" viewBox="0 0 126 83" fill="none" xmlns="http://www.w3.org/2000/svg">
<path d="M47.5 36.1532C52.1727 36.1532 52.7261 36.171 54.5714 36.2552C56.2777 36.3331 57.2043 36.6182 57.821 36.8577C58.6378 37.1752 59.2208 37.5545 59.8332 38.1668C60.4455 38.7792 60.8248 39.3622 61.1422 40.179C61.3818 40.7957 61.6669 41.7223 61.7448 43.4285C61.829 45.2739 61.8468 45.8273 61.8468 50.5C61.8468 55.1728 61.829 55.7262 61.7448 57.5715C61.6669 59.2777 61.3818 60.2043 61.1422 60.8211C60.8248 61.6379 60.4455 62.2209 59.8332 62.8332C59.2208 63.4456 58.6378 63.8249 57.821 64.1423C57.2043 64.3819 56.2777 64.667 54.5714 64.7449C52.7264 64.8291 52.173 64.8469 47.5 64.8469C42.827 64.8469 42.2735 64.8291 40.4285 64.7449C38.7223 64.667 37.7957 64.3819 37.179 64.1423C36.3621 63.8249 35.7791 63.4456 35.1668 62.8332C34.5544 62.2209 34.1751 61.6379 33.8577 60.8211C33.6181 60.2043 33.333 59.2777 33.2551 57.5716C33.1709 55.7262 33.1531 55.1728 33.1531 50.5C33.1531 45.8273 33.1709 45.2739 33.2551 43.4286C33.333 41.7223 33.6181 40.7957 33.8577 40.179C34.1751 39.3622 34.5544 38.7792 35.1668 38.1668C35.7791 37.5545 36.3621 37.1752 37.179 36.8577C37.7957 36.6182 38.7223 36.3331 40.4284 36.2552C42.2738 36.171 42.8272 36.1532 47.5 36.1532ZM47.5 33C42.7472 33 42.1513 33.0201 40.2848 33.1053C38.422 33.1903 37.15 33.4861 36.0368 33.9188C34.886 34.366 33.9101 34.9644 32.9372 35.9372C31.9643 36.9101 31.3659 37.8861 30.9187 39.0368C30.4861 40.15 30.1903 41.4221 30.1052 43.2848C30.0201 45.1513 30 45.7473 30 50.5C30 55.2528 30.0201 55.8487 30.1052 57.7152C30.1903 59.578 30.4861 60.85 30.9187 61.9632C31.3659 63.1139 31.9643 64.0899 32.9372 65.0628C33.9101 66.0357 34.886 66.6341 36.0368 67.0813C37.15 67.5139 38.422 67.8097 40.2848 67.8948C42.1513 67.9799 42.7472 68 47.5 68C52.2527 68 52.8487 67.9799 54.7152 67.8948C56.5779 67.8097 57.85 67.5139 58.9632 67.0813C60.1139 66.6341 61.0899 66.0357 62.0628 65.0628C63.0356 64.0899 63.634 63.114 64.0812 61.9632C64.5139 60.85 64.8097 59.578 64.8947 57.7152C64.9799 55.8487 65 55.2528 65 50.5C65 45.7473 64.9799 45.1513 64.8947 43.2848C64.8097 41.4221 64.5139 40.15 64.0812 39.0368C63.634 37.8861 63.0356 36.9101 62.0628 35.9372C61.0899 34.9644 60.1139 34.366 58.9632 33.9188C57.85 33.4861 56.5779 33.1903 54.7152 33.1053C52.8487 33.0201 52.2527 33 47.5 33ZM47.5 41.5135C42.5369 41.5135 38.5134 45.5369 38.5134 50.5C38.5134 55.4631 42.5369 59.4865 47.5 59.4865C52.4631 59.4865 56.4865 55.4631 56.4865 50.5C56.4865 45.5369 52.4631 41.5135 47.5 41.5135ZM47.5 56.3334C44.2783 56.3334 41.6666 53.7217 41.6666 50.5C41.6666 47.2784 44.2783 44.6667 47.5 44.6667C50.7216 44.6667 53.3333 47.2784 53.3333 50.5C53.3333 53.7217 50.7216 56.3334 47.5 56.3334ZM58.9415 41.1585C58.9415 42.3183 58.0013 43.2585 56.8415 43.2585C55.6817 43.2585 54.7415 42.3183 54.7415 41.1585C54.7415 39.9987 55.6817 39.0585 56.8415 39.0585C58.0013 39.0585 58.9415 39.9987 58.9415 41.1585Z" fill="black"/>
</svg>
