<svg width="65" height="50" viewBox="0 0 65 50" fill="none" xmlns="http://www.w3.org/2000/svg">
<path d="M52.9495 0H23.1655C22.655 0 22.1465 0.203414 21.7895 0.560403L7.61222 13.8718C7.2034 14.2288 7 14.7892 7 15.3515V46.4619C7 47.5826 7.91736 48.5 9.04011 48.5H38.8221C39.3326 48.5 39.8411 48.2966 40.1981 47.9396L54.3253 34.6282C54.7342 34.2712 54.9376 33.7108 54.9376 33.1485V2.04016C54.9376 0.917413 54.0204 0 52.9495 0ZM50.9094 31.1104H40.8128V16.2173L50.9094 6.73076V31.1104ZM25.156 17.34H36.7842V31.0583H25.156V17.34ZM38.0069 13.3116H25.156V4.02824H47.8503L38.0069 13.3116ZM21.1259 13.3116H14.0883L21.0764 6.73249V13.3116H21.1259ZM21.1259 17.34V32.231L11.0293 41.7676V17.34H21.1259ZM23.9318 35.1384H36.7827V44.4197H14.0884L23.9318 35.1384ZM40.8128 35.1384H47.8504L40.8128 41.767V35.1384Z" fill="black"/>
</svg>
