<svg width="92" height="56" viewBox="0 0 92 56" fill="none" xmlns="http://www.w3.org/2000/svg">
<path d="M61.5806 4.92579H24.4051C20.6447 4.92579 17.2209 6.46912 14.7409 8.95076C12.2547 11.4291 10.7159 14.8558 10.7159 18.6227V37.8193C10.7159 41.586 12.2547 45.0127 14.7311 47.4913C17.2206 49.9763 20.6445 51.5195 24.4012 51.5195H77.3145L72.989 45.4805L73.6162 44.3263C74.1422 43.3585 74.5571 42.2991 74.8447 41.1776C75.1158 40.1117 75.2596 38.9869 75.2596 37.8229V18.6263C75.2596 14.8564 73.7208 11.4297 71.2444 8.95436C68.7549 6.47271 65.3343 4.92939 61.571 4.92939L61.5806 4.92579ZM61.5055 25.7111C60.8129 25.7111 60.1823 25.9923 59.7315 26.4435C59.2806 26.8947 58.9964 27.5258 58.9964 28.2189C58.9964 28.9121 59.2773 29.5431 59.7315 29.9944C60.1823 30.4456 60.8129 30.7268 61.5055 30.7268C62.2014 30.7268 62.8319 30.4456 63.286 29.9976C63.7369 29.5464 64.0146 28.9154 64.0146 28.2157C64.0146 27.5192 63.7336 26.8882 63.286 26.4337C62.8352 25.9825 62.2046 25.7046 61.5055 25.7046V25.7111ZM56.7748 23.4878C57.9836 22.278 59.6596 21.5259 61.5055 21.5259C63.3448 21.5259 65.0175 22.2747 66.2296 23.4878L66.2361 23.4943C67.4449 24.7073 68.1964 26.3781 68.1964 28.2222C68.1964 30.063 67.4482 31.7371 66.2361 32.9501L66.2296 32.9567C65.0175 34.1664 63.3481 34.9185 61.5055 34.9185C59.6596 34.9185 57.9869 34.1698 56.7748 32.9567C55.5628 31.7436 54.8146 30.0696 54.8146 28.2222C54.8146 26.3749 55.5627 24.7008 56.7748 23.4878ZM24.4837 25.7111C23.7878 25.7111 23.1573 25.9923 22.7031 26.4402C22.2523 26.8914 21.9746 27.5225 21.9746 28.2222C21.9746 28.9186 22.2556 29.5497 22.7031 30.0042C23.154 30.4554 23.7846 30.7333 24.4837 30.7333C25.1796 30.7333 25.8068 30.4521 26.2609 29.9976C26.7183 29.5497 26.996 28.9219 26.996 28.2222C26.996 27.5225 26.7183 26.8947 26.2707 26.4467C25.8101 25.9955 25.1795 25.7111 24.487 25.7111L24.4837 25.7111ZM19.7596 23.4878C20.9716 22.278 22.6411 21.5259 24.4837 21.5259C26.3295 21.5259 28.0055 22.2747 29.2143 23.4878C30.4231 24.7073 31.1746 26.3814 31.1746 28.2222C31.1746 30.063 30.4232 31.7371 29.2111 32.9534C28.0055 34.1697 26.3295 34.9185 24.4837 34.9185C22.6443 34.9185 20.9716 34.1697 19.7596 32.9566L19.753 32.9501C18.5442 31.7371 17.7928 30.0663 17.7928 28.2222C17.7928 26.3814 18.5409 24.7073 19.753 23.4943L19.7596 23.4878ZM42.9946 23.6512C41.727 23.6512 40.5835 24.1613 39.7667 24.982L39.7602 24.9885C38.9402 25.8092 38.4305 26.9503 38.4305 28.219C38.4305 29.4876 38.9402 30.632 39.7602 31.4494L39.7667 31.456C40.5867 32.2766 41.727 32.7867 42.9946 32.7867C44.2622 32.7867 45.4056 32.2766 46.2224 31.456L46.229 31.4494C47.049 30.6287 47.5586 29.4876 47.5586 28.219C47.5586 26.9503 47.049 25.8059 46.229 24.9885L46.2224 24.982C45.4024 24.1613 44.2622 23.6512 42.9946 23.6512ZM36.8101 22.0393L36.8166 22.0327C38.4011 20.4502 40.5868 19.466 42.9946 19.466C45.3991 19.466 47.5848 20.447 49.1726 22.0327L49.1791 22.0393C50.7603 23.625 51.7437 25.8125 51.7437 28.2222C51.7437 30.6287 50.7636 32.8161 49.1791 34.4052L49.1726 34.4117C47.5881 35.9942 45.4024 36.9784 42.9946 36.9784C40.59 36.9784 38.4044 35.9975 36.8166 34.4117L36.8101 34.4052C35.2289 32.8194 34.2455 30.632 34.2455 28.2222C34.2455 25.8157 35.2256 23.6283 36.8101 22.0393ZM24.4085 0.74086H61.584C66.5009 0.74086 70.9672 2.75167 74.2047 5.99193C77.4424 9.23871 79.4516 13.7117 79.4516 18.6228V37.8194C79.4516 39.3202 79.2588 40.7883 78.9027 42.1976C78.6479 43.2046 78.3049 44.179 77.8801 45.1174L85.4629 55.7017H24.405C19.4914 55.7017 15.0218 53.6876 11.7843 50.4474C8.54664 47.1973 6.53418 42.7276 6.53418 37.8198V18.6232C6.53418 13.7154 8.54664 9.24256 11.7875 5.9957C15.0187 2.75218 19.4879 0.738098 24.4016 0.738098L24.4085 0.74086Z" fill="black"/>
</svg>
