<svg width="39" height="50" viewBox="0 0 39 50" fill="none" xmlns="http://www.w3.org/2000/svg">
<path d="M31.58 17.45C33.98 15.81 35.56 13.06 35.56 9.94997C35.56 4.96997 31.5 0.909973 26.52 0.909973H11.45C6.46999 0.909973 2.41998 4.96997 2.41998 9.94997C2.41998 13.08 4.00998 15.84 6.42999 17.47C4.00998 19.09 2.41998 21.85 2.41998 24.98C2.41998 28.11 4.02998 30.89 6.45998 32.51C4.02998 34.14 2.41998 36.91 2.41998 40.05C2.41998 45.03 6.46999 49.09 11.45 49.09C16.43 49.09 20.49 45.03 20.49 40.05V31.66C22.1 33.11 24.23 33.99 26.55 33.99C31.53 33.99 35.58 29.94 35.58 24.95C35.58 21.83 33.99 19.07 31.58 17.45ZM17.49 40.05C17.49 43.38 14.78 46.09 11.45 46.09C8.11999 46.09 5.41998 43.38 5.41998 40.05C5.41998 36.72 8.11999 34.01 11.45 34.01H17.49V40.05ZM17.49 31.01H11.45C8.11999 31.01 5.41998 28.31 5.41998 24.98C5.41998 21.86 7.78999 19.28 10.83 18.97H10.86C11.06 18.95 11.25 18.94 11.45 18.94H17.49V31.01ZM17.49 15.99H11.45C11.25 15.99 11.06 15.98 10.86 15.96H10.83C7.78999 15.65 5.41998 13.07 5.41998 9.94997C5.41998 6.61997 8.11999 3.90997 11.45 3.90997H17.49V15.99ZM20.49 3.90997H26.52C29.85 3.90997 32.56 6.61997 32.56 9.94997C32.56 13.04 30.22 15.6 27.22 15.95C26.99 15.98 26.76 15.99 26.52 15.99H20.49V3.90997ZM26.55 30.99C23.22 30.99 20.51 28.28 20.51 24.95C20.51 21.92 22.75 19.41 25.66 18.99C25.95 18.94 26.25 18.92 26.55 18.92C26.78 18.92 27.01 18.93 27.23 18.96C30.24 19.29 32.58 21.85 32.58 24.95C32.58 28.28 29.88 30.99 26.55 30.99Z" fill="black"/>
</svg>
