<svg width="134" height="55" viewBox="0 0 134 55" fill="none" xmlns="http://www.w3.org/2000/svg">
<g clip-path="url(#clip0_19_16)">
<path d="M30.8413 6.38001C30.8413 5.1355 31.2769 4.1088 32.148 3.29992C33.0191 2.49099 34.1516 2.08655 35.5453 2.08655C36.9142 2.08655 38.0218 2.48476 38.868 3.28125C39.7391 4.10261 40.1747 5.17283 40.1747 6.49201C40.1747 7.68671 39.7516 8.68227 38.9053 9.47876C38.0342 10.3001 36.8893 10.7108 35.4707 10.7108H35.4333C34.0644 10.7108 32.9569 10.3001 32.1106 9.47876C31.2644 8.6574 30.8413 7.62447 30.8413 6.38001ZM31.3266 39.0476V14.1082H39.6147V39.0476H31.3266ZM44.2067 39.0476H52.4947V25.1219C52.4947 24.2507 52.5943 23.5787 52.7934 23.1058C53.1419 22.2596 53.6708 21.544 54.3801 20.9591C55.0894 20.3742 55.9792 20.0817 57.0494 20.0817C59.837 20.0817 61.2308 21.9609 61.2308 25.7192V39.0476H69.5188V24.7485C69.5188 21.0649 68.6477 18.271 66.9055 16.367C65.1632 14.4629 62.861 13.5109 59.9988 13.5109C56.7881 13.5109 54.2868 14.8923 52.4947 17.655V17.7297H52.4574L52.4947 17.655V14.1082H44.2067C44.2565 14.9047 44.2814 17.3812 44.2814 21.5378C44.2814 25.6943 44.2565 31.5309 44.2067 39.0476Z" fill="black"/>
</g>
<defs>
<clipPath id="clip0_19_16">
<rect width="134" height="55" fill="white"/>
</clipPath>
</defs>
</svg>
