<svg width="126" height="83" viewBox="0 0 126 83" fill="none" xmlns="http://www.w3.org/2000/svg">
<g clip-path="url(#clip0_19_2)">
<path d="M36.9812 49.1255L36.987 65.2531L45.5324 65.255C50.2323 65.2569 54.1995 65.2511 54.3484 65.2414C56.5485 65.1056 58.592 64.479 60.1368 63.4643C62.3292 62.0248 63.582 59.8462 63.8604 56.9885C63.93 56.2785 63.9396 55.0155 63.8816 54.3792C63.696 52.377 63.1238 50.7688 62.1803 49.6067C61.2504 48.4601 59.9028 47.8141 58.273 47.7326L58.0024 47.719L58.2344 47.6763C59.143 47.5076 60.0227 47.1098 60.7438 46.5375C60.8521 46.4502 61.0493 46.2698 61.1827 46.1359C61.8516 45.4569 62.2963 44.646 62.565 43.6217C62.8705 42.4557 62.8821 40.8203 62.594 39.4118C62.3756 38.3389 61.9328 37.2855 61.3509 36.4532C60.883 35.782 60.2547 35.1495 59.5877 34.6762C58.4451 33.8652 56.9719 33.3123 55.4098 33.1067C54.6345 33.0058 55.3054 33.0116 45.7779 33.0058L36.9774 33L36.9812 49.1255ZM54.1106 38.7949C54.1937 38.8181 54.358 38.8841 54.4779 38.9423C55.1836 39.2799 55.6495 39.9298 55.8544 40.8571C55.9492 41.2859 55.9704 41.5206 55.9704 42.1278C55.9704 43.2647 55.837 44.0349 55.5277 44.6693C55.1797 45.3852 54.6094 45.779 53.7606 45.8896C53.5499 45.9167 53.0279 45.9206 48.9428 45.9206H44.3627V42.3315V38.7425L49.1632 38.7464L53.9617 38.7522L54.1106 38.7949ZM54.2111 50.9608C54.9187 51.116 55.4581 51.4051 55.924 51.8746C56.2198 52.1733 56.3822 52.3984 56.5717 52.7786C56.9332 53.5042 57.0879 54.2725 57.0879 55.3298C57.086 56.1582 56.9893 56.777 56.767 57.3532C56.5698 57.8635 56.3436 58.2107 55.9743 58.5638C55.402 59.1128 54.619 59.4213 53.5944 59.4989C53.4784 59.5086 51.3517 59.5164 48.8732 59.5183L44.3627 59.5203V55.2134V50.9065L49.1922 50.9123L54.0197 50.9181L54.2111 50.9608Z" fill="black"/>
<path d="M70.6173 36.8898V38.8783H77.2486H83.88V36.8898V34.9012H77.2486H70.6173V36.8898Z" fill="black"/>
<path d="M76.7846 41.218C76.7266 41.2219 76.5352 41.2335 76.3593 41.2452C73.8421 41.4081 71.6632 42.1628 69.9213 43.4743C69.2002 44.0175 68.4307 44.7896 67.8797 45.5229C66.4819 47.3834 65.5674 49.8143 65.2639 52.478C65.2001 53.0348 65.1788 53.4266 65.1788 54.03C65.1788 55.7624 65.5094 57.5356 66.1223 59.0935C67.0194 61.373 68.508 63.1385 70.5013 64.2889C72.0963 65.2065 74.0142 65.74 76.282 65.8933C76.9122 65.936 78.2327 65.9534 78.7083 65.9243C81.3144 65.7672 83.4856 65.1386 85.1173 64.0639C87.0932 62.764 88.2068 60.9055 88.4736 58.463C88.5026 58.1875 88.5393 57.3727 88.5219 57.3552C88.518 57.3513 87.2459 57.3475 85.6973 57.3475H82.8785L82.865 57.5162C82.8089 58.2205 82.5092 58.8956 82.022 59.4116C81.2487 60.2323 80.023 60.696 78.3603 60.8007C77.9427 60.8259 77.0302 60.8104 76.7518 60.7736C75.3907 60.5912 74.2984 60.0926 73.4999 59.2855C72.7594 58.5386 72.2896 57.4988 72.135 56.2707C72.104 56.0166 72.0673 55.5258 72.0673 55.3337V55.2134H80.3903H88.7133L88.723 55.1688C88.7713 54.9573 88.8177 53.8011 88.8022 53.1667C88.7636 51.3644 88.5122 49.7755 88.0328 48.3088C87.2691 45.9633 85.9796 44.1727 84.197 42.9776C82.7084 41.9804 80.9548 41.4256 78.718 41.2432C78.4705 41.2238 77.0108 41.2044 76.7846 41.218ZM78.3506 45.9691C79.5261 46.0952 80.4425 46.5162 81.1656 47.2612C81.8364 47.9519 82.3178 48.9956 82.488 50.1266C82.5286 50.3982 82.5634 50.858 82.546 50.8852C82.5402 50.893 80.1699 50.9007 77.2776 50.8988L72.019 50.8968L72.0248 50.8251C72.0267 50.7863 72.0596 50.633 72.0963 50.4855C72.4984 48.8365 73.4496 47.4552 74.6966 46.7025C75.3598 46.3028 76.1814 46.037 76.9973 45.9614C77.3008 45.9342 78.0626 45.9381 78.3506 45.9691Z" fill="black"/>
</g>
<defs>
<clipPath id="clip0_19_2">
<rect width="58" height="33" fill="white" transform="translate(34 33)"/>
</clipPath>
</defs>
</svg>
