<svg width="60" height="77" viewBox="0 0 60 77" fill="none" xmlns="http://www.w3.org/2000/svg">
<path d="M40.0292 29.8925H36.2361C35.8757 27.0701 33.4448 24.8765 30.5069 24.8765C27.5659 24.8765 25.144 27.0701 24.7776 29.8925H23.0277V25.6057C23.0277 25.2016 22.8475 24.8188 22.536 24.5544C22.2245 24.2901 21.8152 24.1807 21.4182 24.2445C21.293 24.2688 21.1525 24.2749 20.9876 24.2749C19.3293 24.2749 17.9856 22.9381 17.9856 21.2884C17.9856 19.6387 19.3294 18.3019 20.9876 18.3019C21.1372 18.3019 21.2838 18.311 21.4487 18.3323C21.8488 18.387 22.2458 18.2715 22.5513 18.0041C22.8567 17.7398 23.0277 17.36 23.0277 16.9621V9.6127C23.0277 8.85011 22.4108 8.23642 21.6443 8.23642C10.598 8.23642 1.6133 17.1715 1.6133 28.1639C1.6133 34.0519 3.93436 37.5127 6.17896 40.8572C8.03273 43.6189 9.79182 46.2409 10.3293 50.2846C8.83589 51.2174 7.83422 52.8732 7.83422 54.766C7.83422 56.3063 8.50609 57.6978 9.56892 58.6639C8.50612 59.6271 7.83422 61.0215 7.83422 62.5619C7.83422 65.4695 10.2102 67.8423 13.1421 67.8423H13.5421V68.7751C13.5421 73.2169 17.1763 76.8321 21.641 76.8321C26.1059 76.8321 29.7398 73.2166 29.7398 68.7751V67.8423H30.1399C33.0626 67.8423 35.4478 65.4786 35.4478 62.5619C35.4478 61.0215 34.7759 59.6301 33.7131 58.6639C34.7759 57.7008 35.4478 56.3063 35.4478 54.766C35.4478 52.8823 34.4461 51.2204 32.9527 50.2846C33.4932 46.2408 35.2523 43.6188 37.103 40.8572C38.8774 38.2048 40.7159 35.4674 41.3939 31.4935C41.4641 31.0894 41.3481 30.6853 41.0885 30.3724C40.8228 30.0625 40.441 29.8833 40.0257 29.8833L40.0292 29.8925ZM20.2578 11.0618V15.5947C17.4206 15.9532 15.2157 18.3716 15.2157 21.2944C15.2157 24.2201 17.4206 26.6295 20.2578 26.994V29.8955H4.47207C4.4171 29.3517 4.38655 28.7744 4.38655 28.1759C4.38655 19.177 11.3832 11.7726 20.2582 11.0648L20.2578 11.0618ZM8.49062 39.3355C7.09186 37.2513 5.7451 35.2431 4.99683 32.6546H20.2579V49.4919H13.1513H13.0261C12.339 45.0653 10.3902 42.1583 8.49062 39.3355ZM26.9736 68.7814C26.9736 71.7072 24.5823 74.077 21.6505 74.077C18.7187 74.077 16.3274 71.6981 16.3274 68.7814V67.8487H26.9828V68.7814H26.9736ZM32.6723 62.5683C32.6723 63.9598 31.5393 65.087 30.1406 65.087H13.1454C11.7467 65.087 10.6136 63.9598 10.6136 62.5683C10.6136 61.1768 11.7467 60.0496 13.1454 60.0496H30.1406C31.5393 60.0496 32.6723 61.1768 32.6723 62.5683ZM13.1425 57.2879C11.7438 57.2879 10.6108 56.1607 10.6108 54.7692C10.6108 53.6633 11.3223 52.7306 12.3149 52.3903C12.324 52.3903 12.3301 52.3903 12.3393 52.3812C12.5897 52.2961 12.8646 52.2475 13.1455 52.2475H30.1407C30.4216 52.2475 30.6874 52.2931 30.9469 52.3812C30.9561 52.3812 30.9622 52.3812 30.9713 52.3903C31.9578 52.7336 32.6755 53.6724 32.6755 54.7692C32.6755 56.1607 31.5424 57.2879 30.1437 57.2879H13.1425ZM34.7918 39.329C32.8984 42.1515 30.9438 45.0621 30.2658 49.486H30.1406H23.034V32.6487H26.1765C26.5766 32.6487 26.9584 32.4785 27.224 32.1747C27.4897 31.8709 27.6058 31.4759 27.5539 31.0779C27.5294 30.9138 27.5233 30.768 27.5233 30.6191C27.5233 28.9694 28.8671 27.6326 30.5253 27.6326C32.1836 27.6326 33.5274 28.9695 33.5274 30.6191C33.5274 30.768 33.5182 30.9138 33.4968 31.0779C33.4419 31.4759 33.5579 31.8708 33.8267 32.1747C34.0924 32.4785 34.4741 32.6487 34.8741 32.6487H38.3129C37.5708 35.222 36.224 37.2303 34.8191 39.3296L34.7918 39.329ZM38.3589 0.486014C37.5923 0.486014 36.9755 1.09973 36.9755 1.86229V6.98769C34.1383 7.3462 31.9334 9.76459 31.9334 12.6873C31.9334 15.6131 34.1383 18.0224 36.9755 18.387V23.5033C36.9755 24.2658 37.5924 24.8795 38.3589 24.8795H43.3002C43.7064 24.8795 44.082 24.7094 44.3477 24.4056C44.6134 24.1018 44.7294 23.6977 44.6684 23.2997C44.6439 23.1447 44.6378 22.9958 44.6378 22.85C44.6378 21.2002 45.9816 19.8635 47.6398 19.8635C49.2981 19.8635 50.6419 21.2003 50.6419 22.85C50.6419 22.9989 50.6327 23.1447 50.6113 23.2997C50.5564 23.6977 50.6724 24.1017 50.932 24.4056C51.1977 24.7094 51.5794 24.8795 51.9795 24.8795H56.7498C57.4309 24.8795 58.002 24.3965 58.118 23.728C58.2982 22.6707 58.3929 21.5496 58.3929 20.3982C58.3929 9.41521 49.4113 0.480103 38.3713 0.480103L38.3589 0.486014ZM55.5284 22.1238H53.3632C53.0028 19.3013 50.5718 17.1138 47.64 17.1138C44.7082 17.1138 42.2772 19.2983 41.9169 22.1238H39.7516V16.9984C39.7516 16.5943 39.5714 16.2115 39.2599 15.9471C38.9484 15.6828 38.5392 15.5734 38.1422 15.6372C38.0017 15.6616 37.8612 15.6676 37.7115 15.6676C36.0532 15.6676 34.7095 14.3308 34.7095 12.6811C34.7095 11.0315 36.0533 9.69461 37.7115 9.69461C37.8765 9.69461 38.0169 9.70372 38.1422 9.72499C38.5422 9.78575 38.9545 9.67942 39.2599 9.41509C39.5653 9.15077 39.7516 8.771 39.7516 8.36385V3.29313C48.6174 4.00103 55.6139 11.3991 55.6139 20.3949C55.6139 20.9874 55.5895 21.5616 55.5345 22.1145L55.5284 22.1238Z" fill="black"/>
</svg>
