<svg width="89" height="72" viewBox="0 0 89 72" fill="none" xmlns="http://www.w3.org/2000/svg">
<path d="M69.5312 66.3163C69.6008 66.5438 69.8094 66.7713 70.0875 66.9419C70.7133 67.2831 71.4781 67.0556 71.8258 66.5438L74.1203 62.9606L76.4148 66.5438C76.5539 66.7713 76.832 66.9419 77.1102 67.0556C77.7359 67.2831 78.5008 66.9419 78.7094 66.3163L82.0469 57.2163C82.2555 56.6475 81.9078 55.965 81.282 55.7944C80.6563 55.6238 79.8914 55.9081 79.6828 56.5338L77.1797 63.245C77.1797 63.245 75.2328 60.1169 75.1633 60.1169C75.0242 59.9463 74.8852 59.7756 74.6766 59.7188C74.0508 59.3775 73.2859 59.605 72.9383 60.1169L70.9914 63.245L68.4883 56.5338C68.2797 55.965 67.5844 55.6238 66.8891 55.7944C66.1937 55.965 65.8461 56.6475 66.1242 57.2163C66.1242 57.2163 69.4617 66.3163 69.5312 66.3163ZM57.0156 67.1125C57.7805 67.1125 58.4062 66.6006 58.4062 65.975V62.3919L61.3266 66.5438C61.7437 67.1125 62.5781 67.2831 63.2039 66.9419C63.8297 66.6006 64.1078 65.9181 63.6906 65.4063L61.4656 62.2213C62.9258 61.6525 63.8992 60.515 63.8992 59.15C63.8992 57.2731 62.0219 55.7375 59.7273 55.7375C57.4328 55.7375 55.5555 57.2731 55.5555 59.15V65.975C55.625 66.6006 56.2508 67.1125 57.0156 67.1125ZM59.7969 58.0125C60.5617 58.0125 61.1875 58.5244 61.1875 59.15C61.1875 59.7756 60.5617 60.2875 59.7969 60.2875C59.032 60.2875 58.4062 59.7756 58.4062 59.15C58.4062 58.5244 59.032 58.0125 59.7969 58.0125ZM32.2625 67.1125H34.0703C37.825 67.1125 40.9539 64.4394 40.9539 61.425C40.9539 58.4675 37.825 55.7375 34.0703 55.7375H32.332C31.4281 55.7375 30.6633 56.3631 30.6633 57.1025V65.7475C30.5937 66.4869 31.3586 67.1125 32.2625 67.1125ZM33.3055 58.0125H33.7922C36.2258 58.0125 38.1031 59.5481 38.1031 61.425C38.1031 63.3019 36.2258 64.8375 33.7922 64.8375H33.3055V58.0125ZM44.7781 67.1125H46.5859C50.3406 67.1125 53.4695 64.4394 53.4695 61.425C53.4695 58.4675 50.3406 55.7375 46.5859 55.7375H44.8477C43.9438 55.7375 43.1789 56.3631 43.1789 57.1025V65.7475C43.1094 66.4869 43.8742 67.1125 44.7781 67.1125ZM45.8211 58.0125H46.3078C48.7414 58.0125 50.6188 59.5481 50.6188 61.425C50.6188 63.3019 48.7414 64.8375 46.3078 64.8375H45.8211V58.0125ZM22.25 67.1125H27.8125C28.5773 67.1125 29.2031 66.6006 29.2031 65.975C29.2031 65.3494 28.5773 64.8375 27.8125 64.8375H23.6406V56.875C23.6406 56.2494 23.0148 55.7375 22.25 55.7375C21.4852 55.7375 20.8594 56.2494 20.8594 56.875V65.975C20.8594 66.6006 21.4852 67.1125 22.25 67.1125ZM12.5156 62.5625H14.6016C15.3664 62.5625 15.9922 63.0744 15.9922 63.7C15.9922 64.3256 15.3664 64.8375 14.6016 64.8375H9.80391C9.10859 64.8375 8.48281 65.2356 8.34375 65.8044C8.20469 66.5438 8.9 67.1125 9.73438 67.1125H14.6016C16.8961 67.1125 18.7734 65.5769 18.7734 63.7C18.7734 61.8231 16.8961 60.2875 14.6016 60.2875H12.5156C11.7508 60.2875 11.125 59.7756 11.125 59.15C11.125 58.5244 11.7508 58.0125 12.5156 58.0125H17.3133C18.0086 58.0125 18.6344 57.6144 18.7734 57.0456C18.9125 56.3063 18.2172 55.7375 17.3828 55.7375H12.5156C10.2211 55.7375 8.34375 57.2731 8.34375 59.15C8.34375 61.0269 10.2211 62.5625 12.5156 62.5625ZM75.0938 51.1875V6.25626C75.0938 3.41251 72.3125 1.13751 68.8359 1.13751H20.1641C16.6875 1.13751 13.9062 3.41251 13.9062 6.25626V51.1875H2.78125V66.5438C2.78125 69.3875 5.5625 71.6625 9.03906 71.6625H79.9609C83.4375 71.6625 86.2188 69.3875 86.2188 66.5438V51.1875H75.0938ZM16.6875 6.25626C16.6875 4.66376 18.2172 3.41251 20.1641 3.41251H68.8359C70.7828 3.41251 72.3125 4.66376 72.3125 6.25626V51.1875H16.6875V6.25626ZM83.4375 66.5438C83.4375 68.1363 81.9078 69.3875 79.9609 69.3875H9.03906C7.09219 69.3875 5.5625 68.1363 5.5625 66.5438V53.4625H83.4375V66.5438ZM68.8359 37.6513L63.9688 35.3194V30.3144C63.9688 29.8025 63.5516 29.4044 62.9953 29.2338L56.8766 26.3331C56.4594 26.1625 55.9727 26.1056 55.4859 26.3331L47.9766 29.9163C47.768 30.03 47.5594 30.1438 47.4898 30.3144C47.3508 30.485 47.2812 30.7125 47.2812 30.8831V42.0875C47.2812 42.4856 47.5594 42.8269 47.907 43.0544L59.8664 48.7419C60.2836 48.9694 60.8398 48.9125 61.1875 48.7419L68.7664 45.1588C69.1836 44.9313 69.4617 44.59 69.4617 44.1919V38.5613C69.5313 38.22 69.2531 37.8788 68.8359 37.6513ZM56.1813 28.7219L59.7273 30.4281L54.9297 32.7031L51.3836 30.9969L56.1813 28.7219ZM61.1875 32.305V35.2625L56.3898 37.5375V34.58L61.1875 32.305ZM59.2406 45.8413L50.0625 41.5188V32.9306L53.6086 34.6369V39.585C53.6086 40.04 53.8867 40.3813 54.3039 40.5519C54.5125 40.6656 59.2406 42.8838 59.2406 42.8838V45.8413ZM60.6312 40.8931C59.8664 40.5519 58.6844 39.9831 57.7805 39.5281L62.5781 37.2531L65.3594 38.675L60.6312 40.8931ZM66.75 43.6231L62.0219 45.8981V42.9406L66.75 40.6656V43.6231ZM40.3281 14.7875H33.375V9.10001C33.375 8.47439 32.7492 7.96251 31.9844 7.96251H23.6406C22.8758 7.96251 22.25 8.47439 22.25 9.10001V22.75C22.25 23.3756 22.8758 23.8875 23.6406 23.8875H40.3281C41.093 23.8875 41.7188 23.3756 41.7188 22.75V15.925C41.7188 15.2994 41.093 14.7875 40.3281 14.7875ZM38.9375 21.6125H25.0312V10.2375H30.5938V15.925C30.5938 16.5506 31.2195 17.0625 31.9844 17.0625H38.9375V21.6125ZM50.0625 23.8875H66.75C67.5148 23.8875 68.1406 23.3756 68.1406 22.75V9.10001C68.1406 8.47439 67.5148 7.96251 66.75 7.96251H50.0625C49.2977 7.96251 48.6719 8.47439 48.6719 9.10001V22.75C48.6719 23.3756 49.2977 23.8875 50.0625 23.8875ZM51.4531 10.2375H65.3594V14.7875H51.4531V10.2375ZM51.4531 17.0625H65.3594V21.6125H51.4531V17.0625ZM40.3281 29.575H23.6406C22.8758 29.575 22.25 30.0869 22.25 30.7125V44.3625C22.25 44.9881 22.8758 45.5 23.6406 45.5H40.3281C41.093 45.5 41.7188 44.9881 41.7188 44.3625V30.7125C41.7188 30.0869 41.093 29.575 40.3281 29.575ZM38.9375 43.225H25.0312V31.85H38.9375V43.225Z" fill="black"/>
</svg>
