<svg width="92" height="98" viewBox="0 0 92 98" fill="none" xmlns="http://www.w3.org/2000/svg">
<path d="M66.039 90V88.4492C66.039 87.8594 65.6523 87.289 65.0312 86.8437C64.2617 86.2929 63.1718 85.9492 61.9492 85.9492H39.9062C38.6835 85.9492 37.5937 86.2929 36.8242 86.8437C36.2031 87.289 35.8164 87.8593 35.8164 88.4492V90C35.8164 90.5899 36.2031 91.1602 36.8242 91.6055C37.5937 92.1563 38.6836 92.5001 39.9062 92.5001H61.9492C63.1719 92.5001 64.2617 92.1563 65.0312 91.6055C65.6523 91.1602 66.039 90.5899 66.039 90ZM68.4218 6.05103L67.3241 7.14873C66.8827 7.59014 66.7108 8.25033 66.785 8.95733C66.871 9.77764 67.2889 10.6448 68.0038 11.3635L81.8438 25.2035C82.5626 25.9223 83.4297 26.3363 84.25 26.4223C84.9571 26.4965 85.6172 26.3247 86.0586 25.8833L87.1563 24.7856C87.5938 24.3481 87.7696 23.684 87.6954 22.977C87.6095 22.1567 87.1915 21.2895 86.4766 20.5708L72.6366 6.73077C71.9178 6.01202 71.0507 5.59797 70.2304 5.51197C69.5234 5.43775 68.8632 5.60963 68.4218 6.05103ZM65.203 5.02763L66.3007 3.92993C67.414 2.81663 68.9569 2.36353 70.5468 2.53543C72.0234 2.69168 73.5468 3.39871 74.7577 4.60963L88.5977 18.4496C89.8086 19.6605 90.5157 21.184 90.6719 22.6605C90.8438 24.2503 90.3906 25.7933 89.2774 26.9066L88.1797 28.0043C87.0664 29.1176 85.5235 29.5707 83.9336 29.3988C83.2266 29.3246 82.5078 29.1215 81.8203 28.7973L77.8359 32.7817C78.0429 33.4809 78.1484 34.2036 78.1484 34.9223C78.1484 36.8403 77.4179 38.7661 75.9609 40.2231L67.1797 49.0043V56.0082C67.1797 56.8363 66.5078 57.5082 65.6797 57.5082C64.8516 57.5082 64.1797 56.8363 64.1797 56.0082V47.227C64.1797 46.5903 63.9141 46.0043 63.4922 45.5825C63.0703 45.1606 62.4844 44.895 61.8477 44.895C61.2813 44.895 60.6758 45.0981 60.1758 45.2661C59.8555 45.3754 59.5586 45.4731 59.2656 45.5395L59.2578 55.2895C59.2578 56.1137 58.5899 56.7817 57.7656 56.7817C56.9414 56.7817 56.2734 56.1137 56.2734 55.2895V43.2305C56.2656 42.5899 56.0039 42.0039 55.5859 41.586C55.1601 41.1602 54.5742 40.8985 53.9336 40.8985L53.8399 40.8946C53.1563 40.9219 52.4415 41.2188 51.8985 41.6837C51.4493 42.0626 51.1368 42.5469 51.1055 43.047V43.0704L51.1016 55.2934C51.1016 56.1176 50.4336 56.7856 49.6094 56.7856C48.7852 56.7856 48.1172 56.1176 48.1172 55.2934V43.2814L48.1094 43.1212L48.1172 42.8361V39.2384C48.1094 38.6016 47.8477 38.0157 47.4219 37.5939C47 37.172 46.4141 36.9064 45.7774 36.9064C45.1368 36.9064 44.5508 37.1681 44.1329 37.5861C43.7071 38.0118 43.4454 38.5978 43.4454 39.2384V43.297L43.4415 55.332C43.4415 56.1562 42.7735 56.8242 41.9493 56.8242C41.1251 56.8242 40.4571 56.1562 40.4571 55.332V43.371L40.4493 43.2382C40.4493 42.5975 40.1876 42.0116 39.7696 41.5937C39.3438 41.1718 38.7579 40.9062 38.1173 40.9062C37.4767 40.9062 36.8907 41.1718 36.4689 41.5937C36.0471 42.0155 35.7814 42.6015 35.7814 43.2382L35.7775 49.6015V55.5624C35.7775 56.3866 35.1095 57.0546 34.2853 57.0546C33.4611 57.0546 32.7931 56.3866 32.7931 55.5624V50.2616C32.3634 49.9139 31.8165 49.7498 31.254 49.7537C30.7384 49.7576 30.211 49.9022 29.7306 50.1678C29.2501 50.4373 28.8165 50.8358 28.5079 51.3475C27.9415 52.2811 27.7579 53.6327 28.3008 55.3709C30.4063 60.3631 32.6915 65.5859 35.1603 69.5189C37.4455 73.1595 39.8205 75.6634 42.2033 75.6634H57.7033C59.4885 75.6634 61.1134 74.9329 62.293 73.7532C63.4688 72.5774 64.2033 70.9485 64.2033 69.1673V68.3782C64.2033 67.5501 64.8751 66.8782 65.7032 66.8782C66.5314 66.8782 67.2032 67.5501 67.2032 68.3782V69.1673C67.2032 71.7806 66.133 74.1556 64.4142 75.8743C63.7696 76.5188 63.0314 77.0735 62.2228 77.5149V82.9602C63.9806 83.0071 65.5938 83.5539 66.793 84.4133C68.1953 85.4172 69.0664 86.8469 69.0664 88.4563V90.0071C69.0664 91.6165 68.1954 93.0462 66.793 94.0501C65.5391 94.9446 63.8321 95.5071 61.9805 95.5071H39.9375C38.0859 95.5071 36.3789 94.9485 35.125 94.0501C33.7227 93.0462 32.8516 91.6165 32.8516 90.0071V88.4563C32.8516 86.8469 33.7227 85.4172 35.125 84.4133C35.7657 83.9563 36.5235 83.5852 37.3595 83.3352V77.2102C37.3595 77.0696 37.379 76.9368 37.4141 76.8079C35.7149 75.472 34.1289 73.4915 32.6407 71.1165C30.0548 66.9876 27.711 61.6399 25.5587 56.5385L25.4611 56.3002C24.6525 53.7416 24.9572 51.6088 25.8478 50.0072L16.0744 40.2377C14.6174 38.7807 13.8908 36.8588 13.8908 34.9369C13.8869 34.2142 13.9885 33.4955 14.1955 32.7963L10.2072 28.808C9.51578 29.1322 8.80099 29.3314 8.09389 29.4095C6.50409 29.5814 4.96109 29.1283 3.84779 28.015L2.75009 26.9173C1.63679 25.804 1.18369 24.2611 1.35559 22.6712C1.51184 21.1946 2.21887 19.6712 3.42979 18.4603L4.83999 17.0501C5.42593 16.4642 6.37519 16.4642 6.96109 17.0501C7.54703 17.6361 7.54703 18.5853 6.96109 19.1712L5.55089 20.5814C4.83214 21.3002 4.41809 22.1673 4.33209 22.9876C4.25787 23.6947 4.42975 24.3548 4.87115 24.7962L5.96885 25.8939C6.40635 26.3314 7.07045 26.5072 7.77745 26.433C8.59776 26.3471 9.46495 25.9291 10.1837 25.2142L24.0236 11.3742C24.7424 10.6554 25.1564 9.7883 25.2424 8.968C25.3167 8.26097 25.1448 7.6008 24.7034 7.1594L23.6057 6.0617C23.1643 5.62029 22.5041 5.44842 21.7971 5.52264C20.9768 5.60858 20.1096 6.02655 19.3909 6.74144L11.2893 14.843C10.7033 15.429 9.75409 15.429 9.16819 14.843C8.58225 14.2571 8.58225 13.3078 9.16819 12.7219L17.2698 4.62034C18.4807 3.40944 20.0042 2.70234 21.4807 2.54614C23.0705 2.37426 24.6135 2.82739 25.7268 3.94064L26.8245 5.03834C27.9378 6.15164 28.3909 7.69454 28.219 9.28444C28.0745 10.6282 27.4768 12.011 26.4534 13.1672L29.969 16.6828C31.1721 16.1633 32.4573 15.9055 33.7463 15.9055C36.1369 15.9055 38.5354 16.8039 40.3713 18.593L52.1213 30.339C52.7541 30.9718 53.2072 31.6945 53.5041 32.4523C54.0119 33.7414 54.0588 35.132 53.7892 36.3859C53.6682 36.9406 53.4807 37.4718 53.2463 37.964C53.4103 37.9445 53.5744 37.9288 53.7346 37.921L53.9533 37.9132C55.4142 37.9132 56.7463 38.5148 57.7111 39.4757L57.7189 39.4835C58.4767 40.2413 59.008 41.2257 59.2033 42.3194L59.2854 42.4327C59.9963 42.1944 60.8557 41.9132 61.8674 41.9132C63.3362 41.9132 64.672 42.5147 65.6368 43.4796C66.1251 43.9679 66.5197 44.5499 66.7891 45.1944L73.8633 38.1202C74.7344 37.2491 75.1758 36.0929 75.1758 34.9405C75.1758 33.7843 74.7383 32.6319 73.8672 31.7569L62.9023 20.7999C61.6406 19.5382 59.9726 18.9054 58.3085 18.9054C56.6405 18.9054 54.9726 19.5343 53.7108 20.796L51.0311 23.4796C50.4451 24.0655 49.4959 24.0655 48.91 23.4796C48.324 22.8936 48.324 21.9444 48.91 21.3585L51.5897 18.6788C53.4452 16.8311 55.8788 15.9054 58.3045 15.9054C59.5936 15.9054 60.8787 16.1671 62.0818 16.6827L65.5974 13.1671C64.574 12.0148 63.9763 10.628 63.8318 9.28432C63.6599 7.69452 64.113 6.15152 65.2263 5.03822L65.203 5.02763ZM79.387 26.9886L67.684 15.2856L64.641 18.3286C64.7621 18.438 64.8793 18.5474 64.9926 18.6646L75.9536 29.6256C76.0864 29.7584 76.2153 29.899 76.3364 30.0396L79.387 26.9886ZM24.309 15.2856L12.606 26.9886L15.6568 30.0394C15.7506 29.9301 15.8482 29.8246 15.9498 29.7191L26.9968 18.6641C27.114 18.5469 27.2312 18.4376 27.3522 18.3282L24.309 15.2856ZM50.473 36.7386C50.6293 36.4418 50.7503 36.1019 50.8285 35.7386C50.9847 35.0199 50.9613 34.2386 50.6839 33.5277C50.5355 33.1488 50.2972 32.7777 49.9691 32.4457L38.2421 20.7117C36.9882 19.4969 35.3515 18.8914 33.7148 18.8914C32.0468 18.8914 30.3789 19.5203 29.1171 20.782L18.0901 31.809C17.2659 32.6723 16.8518 33.7973 16.8518 34.9223C16.844 36.0707 17.2854 37.2231 18.1604 38.0981L27.8479 47.7934C27.9807 47.7075 28.1174 47.6216 28.2542 47.5473C29.1643 47.0395 30.1917 46.7661 31.1995 46.7583C31.7307 46.7544 32.262 46.8208 32.7659 46.9614V43.2309C32.758 41.7621 33.3596 40.4262 34.3245 39.4614C35.2893 38.4966 36.6253 37.895 38.094 37.895C38.9533 37.895 39.7659 38.102 40.4885 38.4653C40.6525 37.3091 41.1994 36.2661 41.9924 35.4731L42.0002 35.4653C42.9689 34.5005 44.301 33.8989 45.7619 33.8989C47.2307 33.8989 48.5666 34.5005 49.5275 35.4653C49.9025 35.8403 50.2191 36.2699 50.473 36.7386ZM59.1918 82.9496V78.5355C58.6957 78.6176 58.1918 78.6566 57.6723 78.6566H42.1723C41.5434 78.6566 40.9223 78.5629 40.3207 78.3832V82.9457H59.1917L59.1918 82.9496ZM67.1723 62.2546C67.1723 63.0828 66.5004 63.7546 65.6723 63.7546C64.8442 63.7546 64.1723 63.0828 64.1723 62.2546V62.1335C64.1723 61.3054 64.8442 60.6335 65.6723 60.6335C66.5004 60.6335 67.1723 61.3054 67.1723 62.1335V62.2546Z" fill="black"/>
</svg>
