<svg width="64" height="63" viewBox="0 0 64 63" fill="none" xmlns="http://www.w3.org/2000/svg">
<path d="M32 1.49536C23.9692 1.49536 16.2642 4.69833 10.5853 10.3968C4.90705 16.0956 1.71591 23.8283 1.71591 31.8889C1.71591 39.9494 4.90735 47.6815 10.5853 53.3809C16.2636 59.0797 23.9685 62.2824 32 62.2824C40.0315 62.2824 47.7358 59.0794 53.4147 53.3809C59.093 47.6821 62.2841 39.9494 62.2841 31.8889C62.2754 23.8313 59.0839 16.1045 53.4057 10.4058C47.7275 4.70701 40.0285 1.50434 32 1.49536ZM32 57.6065C25.2035 57.6065 18.6869 54.8974 13.8787 50.0756C9.07407 45.2507 6.375 38.7105 6.375 31.8889C6.375 25.0673 9.07437 18.5277 13.8787 13.7021C18.6863 8.88011 25.2029 6.17129 32 6.17129C38.7971 6.17129 45.3131 8.88041 50.1213 13.7021C54.9259 18.5271 57.625 25.0673 57.625 31.8889C57.6163 38.707 54.914 45.2448 50.1093 50.0636C45.3076 54.8857 38.7933 57.5975 32 57.6065ZM42.9634 39.5896C43.872 40.5014 43.872 41.9801 42.9634 42.892C42.0548 43.8038 40.5815 43.8038 39.6729 42.892L30.3547 33.5401C29.9179 33.1017 29.6704 32.5085 29.6704 31.889V13.1853C29.6704 11.8935 30.7128 10.8473 32 10.8473C33.2871 10.8473 34.3295 11.8935 34.3295 13.1853V30.9216L42.9634 39.5896Z" fill="black"/>
</svg>
