<svg width="66" height="57" viewBox="0 0 66 57" fill="none" xmlns="http://www.w3.org/2000/svg">
<path d="M55.6944 0.723206H6.82241C3.93601 0.723206 1.64001 3.01921 1.64001 5.84001V42.576C1.64001 45.3968 3.93601 47.7584 6.82241 47.7584H33.6528C33.5872 47.4304 33.5216 47.168 33.456 46.84C33.3904 46.184 33.456 45.5936 33.6528 45.0032H6.75681C5.44481 45.0032 4.32961 43.888 4.32961 42.576V13.5152H58.056V33.5888C58.2528 33.5232 58.4496 33.4576 58.6464 33.392C58.9744 33.3264 59.3024 33.2608 59.6304 33.2608C60.024 33.2608 60.4176 33.3264 60.8112 33.392V5.84001C60.8768 3.01921 58.5152 0.723206 55.6944 0.723206ZM8.06881 8.6608C7.15041 8.6608 6.42881 7.9392 6.42881 7.0208C6.42881 6.1024 7.15041 5.38081 8.06881 5.38081C8.98721 5.38081 9.70881 6.1024 9.70881 7.0208C9.70881 7.9392 8.98721 8.6608 8.06881 8.6608ZM12.9232 8.6608C12.0048 8.6608 11.2832 7.9392 11.2832 7.0208C11.2832 6.1024 12.0048 5.38081 12.9232 5.38081C13.8416 5.38081 14.5632 6.1024 14.5632 7.0208C14.5632 7.9392 13.8416 8.6608 12.9232 8.6608ZM17.7776 8.6608C16.8592 8.6608 16.1376 7.9392 16.1376 7.0208C16.1376 6.1024 16.8592 5.38081 17.7776 5.38081C18.696 5.38081 19.4176 6.1024 19.4176 7.0208C19.4176 7.9392 18.696 8.6608 17.7776 8.6608ZM55.4976 7.7424C55.4976 8.136 55.1696 8.46401 54.776 8.46401H37.5888C37.1952 8.46401 36.8672 8.136 36.8672 7.7424V6.29921C36.8672 5.90561 37.1952 5.57761 37.5888 5.57761H54.776C55.1696 5.57761 55.4976 5.90561 55.4976 6.29921V7.7424Z" fill="black"/>
<path d="M25.3216 35.8192H9.05279C8.72479 35.8192 8.39679 35.5568 8.39679 35.1632V33.8512C8.39679 33.5232 8.65919 33.1952 9.05279 33.1952H25.3216C25.6496 33.1952 25.9776 33.4576 25.9776 33.8512V35.1632C25.9776 35.5568 25.6496 35.8192 25.3216 35.8192Z" fill="black"/>
<path d="M25.3216 41.0672H9.05279C8.72479 41.0672 8.39679 40.8048 8.39679 40.4112V39.0992C8.39679 38.7712 8.65919 38.4432 9.05279 38.4432H25.3216C25.6496 38.4432 25.9776 38.7056 25.9776 39.0992V40.4112C25.9776 40.8048 25.6496 41.0672 25.3216 41.0672Z" fill="black"/>
<path d="M24.5344 30.5712H9.83999C9.05279 30.5712 8.39679 29.9152 8.39679 29.128V18.96C8.39679 18.1728 9.05279 17.5168 9.83999 17.5168H24.4688C25.256 17.5168 25.912 18.1728 25.912 18.96V29.128C25.9776 29.9152 25.3216 30.5712 24.5344 30.5712Z" fill="black"/>
<path d="M37.5888 44.2816C37.1296 44.3472 36.736 44.6096 36.408 44.9376C35.9488 45.3968 35.752 46.0528 35.8176 46.7088C35.8832 47.3648 36.2112 47.9552 36.736 48.3488L45.1984 54.9088C47.4944 56.68 50.4464 57.336 53.2672 56.7456L57.4 55.8272C59.6304 55.3024 61.4672 53.9904 62.7136 52.088C63.8944 50.1856 64.288 47.8896 63.8288 45.7248L61.992 37.5248C61.7296 36.2784 60.4832 35.5568 59.3024 35.8192C58.5152 36.016 57.9248 36.5408 57.6624 37.2624L57.072 38.5744L56.744 37.0656C56.4816 35.8192 55.2352 35.0976 54.0544 35.36C53.2672 35.5568 52.6768 36.0816 52.4144 36.8032L51.8896 38.2464L51.5616 36.672C51.2992 35.4256 50.0528 34.704 48.872 34.9664C48.0848 35.1632 47.4944 35.688 47.232 36.4096L46.7072 37.8528L44.4112 27.5536C44.28 26.9632 43.952 26.4384 43.4272 26.1104C42.9024 25.7824 42.312 25.6512 41.7216 25.7824C40.4752 26.0448 39.7536 27.2912 40.016 28.472L43.8864 45.7248C43.952 46.0528 43.8208 46.3808 43.5584 46.5776C43.296 46.7744 42.968 46.7744 42.64 46.5776L39.36 44.544C38.8352 44.216 38.1792 44.1504 37.5888 44.2816Z" fill="black"/>
<path d="M48.544 18.8944C48.0848 18.5664 47.4288 18.7632 47.1664 19.2224C46.8384 19.6816 47.0352 20.3376 47.4944 20.6C51.0368 22.8304 52.0864 27.5536 49.856 31.096C49.528 31.5552 49.7248 32.2112 50.184 32.4736C50.4464 32.6048 50.7088 32.6704 50.9712 32.6048C51.2336 32.5392 51.4304 32.408 51.6272 32.1456C54.448 27.7504 53.0704 21.7808 48.544 18.8944Z" fill="black"/>
<path d="M46.4448 22.3056C45.9856 21.9776 45.3296 22.1744 45.0672 22.6336C44.7392 23.0928 44.936 23.7488 45.3952 24.0112C47.1008 25.0608 47.56 27.2912 46.5104 28.9968C46.1824 29.456 46.3792 30.112 46.8384 30.3744C47.1008 30.5056 47.3632 30.5712 47.6256 30.5056C47.888 30.44 48.0848 30.3088 48.2816 30.0464C49.856 27.4224 49.0688 23.9456 46.4448 22.3056Z" fill="black"/>
<path d="M34.1776 23.6176C34.5056 23.1584 34.3088 22.5024 33.8496 22.24C33.3904 21.912 32.7344 22.1088 32.472 22.568C29.5856 27.0944 30.9632 33.064 35.4896 35.8848C35.752 36.016 36.0144 36.0816 36.2768 36.016C36.5392 35.9504 36.736 35.8192 36.9328 35.5568C37.2608 35.0976 37.064 34.4416 36.6048 34.1792C32.9968 31.8832 31.9472 27.16 34.1776 23.6176Z" fill="black"/>
<path d="M37.5888 25.7168C37.9168 25.2576 37.72 24.6016 37.2608 24.3392C36.8016 24.0112 36.1456 24.208 35.8832 24.6672C34.2432 27.2912 35.0304 30.768 37.6544 32.4736C37.9168 32.6048 38.1792 32.6704 38.4416 32.6048C38.704 32.5392 38.9008 32.408 39.0976 32.1456C39.4256 31.6864 39.2288 31.0304 38.7696 30.768C37.064 29.6528 36.5392 27.4224 37.5888 25.7168Z" fill="black"/>
</svg>
